<?xml version="1.0" encoding="utf-8"?>
<!-- Generator: Adobe Illustrator 22.1.0, SVG Export Plug-In . SVG Version: 6.00 Build 0)  -->
<svg version="1.1" id="Layer_1" xmlns="http://www.w3.org/2000/svg" xmlns:xlink="http://www.w3.org/1999/xlink" x="0px" y="0px"
	 viewBox="0 0 45 45" style="enable-background:new 0 0 45 45;" xml:space="preserve">
<style type="text/css">
	.st0{fill:none;}
</style>
<g id="layer1" transform="translate(357.61 -262.4)">
	<path id="path2470" class="st0" d="M-354.3,305.3c-0.3-0.2-0.6-0.5-0.6-0.6c0-0.1,0.4-1,0.9-1.9c0.8-1.4,0.9-1.7,0.9-2.6
		c0-0.6-0.1-1.2-0.1-1.4c-0.1-0.4-0.2-0.4-0.8-0.3c-0.6,0.1-0.8,0.1-1.2-0.3c-0.6-0.6-0.6-1,0.2-2.1c0.3-0.5,0.6-1,0.6-1.1
		c0-0.1-0.2-0.4-0.6-0.7c-0.7-0.7-0.9-1.5-0.5-2.3c0.3-0.7,0.4-1.3,0-1.3c-1.1,0-1.1-3.1-0.1-4.6c0.2-0.3,0.5-0.8,0.8-1.2
		c0.3-0.4,1.2-1.5,2-2.4c0.9-0.9,1.6-1.7,1.6-1.7s-0.7-0.1-1.5-0.1c-1.3,0-1.5-0.1-1.9-0.4c-0.3-0.2-0.5-0.6-0.5-0.7
		c0-0.3,0.6-1.2,1.4-2.1c0.7-0.8,0.7-1.1,0.3-1.7c-0.4-0.5-0.3-2.6,0.1-3.5c0.2-0.4,1.2-1.6,2.2-2.6c1.7-1.7,1.9-1.9,2.9-2.2
		c1.4-0.4,3.5-0.5,4.2-0.3c0.3,0.1,0.7,0.4,1,0.6c0.4,0.3,0.4,0.3,1.6,0c1.7-0.5,5.6-0.8,9.4-0.7c3.1,0.1,3.4,0.1,4.5,0.6l1.2,0.5
		l0.8-0.4c0.8-0.4,2.2-0.6,5.7-0.8c2.5-0.1,3.1,0.1,4.2,1.2c0.5,0.6,0.6,0.6,0.5,2.1c0,0.8,0,2.7,0,4.1s-0.1,3.6-0.2,5
		c-0.1,1.7-0.1,3.4,0,5.7c0.4,6.6,0.4,7.8,0.2,9.5c-0.2,1.5-0.8,3.3-1.3,4.4c-0.1,0.3,0,0.5,0.7,1.1c0.8,0.7,0.8,0.9,0.8,1.7
		c0,0.5-0.1,1.1-0.3,1.3c-0.9,1.2-4,2.1-5.5,1.6c-0.4-0.1-0.9-0.2-1-0.2c-0.5,0.3-4.3,0.6-6.6,0.6c-1.4,0-3.3,0-4.4,0
		c-1,0-2.3-0.1-2.7-0.2c-0.6-0.1-1-0.1-1.8,0.1c-1.1,0.3-2.3,0.4-3,0.1c-0.5-0.2-2.1-0.1-4.8,0.4c-0.6,0.1-2.8,0.2-5,0.3
		C-353.5,305.6-353.7,305.6-354.3,305.3L-354.3,305.3z M-350.3,304.5c0.8-0.5,1.3-1.3,1.3-2.5c0-0.8,0-0.8-0.9-1.4l-0.9-0.6l-0.9,1
		c-1,1.1-2.2,2.9-2.2,3.3c0,0.4,0.3,0.5,1.6,0.5C-351.3,304.9-350.8,304.8-350.3,304.5L-350.3,304.5z M-347.9,303.6
		c0.5-0.8,0.7-2.1,0.3-2.3c-0.3-0.2-0.5,0.1-0.7,1c-0.1,0.5-0.4,1.2-0.6,1.6c-0.3,0.5-0.4,0.8-0.3,0.8
		C-348.8,304.9-348.5,304.6-347.9,303.6z M-347.2,304.7c0.9-0.3,1.1-0.6,1.2-2c0.1-0.9,0.1-1.1-0.2-1.1c-0.2,0-0.5,0.4-0.8,1
		c-0.3,0.5-0.6,1.2-0.8,1.5C-348.3,305-348.3,305-347.2,304.7L-347.2,304.7z M-344.9,304.5c0.5-0.3,1-1.3,0.9-2.1
		c-0.1-0.6-0.1-0.7-0.5-0.7c-0.4,0-0.5,0.2-1,1.5c-0.3,0.8-0.5,1.5-0.5,1.5C-346.1,304.8-345.3,304.7-344.9,304.5L-344.9,304.5z
		 M-342.8,304.2c0.6-0.4,0.8-1.8,0.5-2.4c-0.3-0.4-0.9-0.1-1,0.5c-0.1,0.3-0.2,0.8-0.4,1.1c-0.1,0.3-0.3,0.7-0.3,0.8
		C-344.1,304.4-343.1,304.4-342.8,304.2L-342.8,304.2z M-327.5,304c0.1-0.1,0.2-0.5,0.3-0.8l0.1-0.7h-0.7c-0.7,0-0.7,0.1-1,0.8
		c-0.2,0.4-0.3,0.8-0.2,0.9C-329,304.4-327.7,304.3-327.5,304L-327.5,304z M-323.6,304c1.9-0.3,2.4-0.4,2.2-0.8
		c-0.1-0.3-0.2-0.7-0.3-1c0-0.1-0.3-0.1-0.7-0.1c-0.7,0.1-0.7,0.1-0.6,0.8c0.1,0.9-0.2,0.9-0.6,0c-0.3-0.6-0.4-0.6-0.8-0.6
		c-0.4,0.1-0.5,0.1-0.6,0.8c-0.1,0.9-0.3,0.9-0.5,0c-0.2-0.9-0.8-0.8-1.3,0.2C-327.3,304.4-327.1,304.5-323.6,304L-323.6,304z
		 M-337.2,304c0.2-0.1,0.5-0.6,0.7-1c0.4-1,0.3-2.1-0.3-2.8c-0.4-0.4-0.5-0.5-0.9-0.3c-0.3,0.1-0.8,0.2-1.1,0.2
		c-0.8,0-1.5,0.7-1.9,1.7c-0.3,1,0,1.5,1,2C-338.7,304.2-337.8,304.3-337.2,304L-337.2,304z M-331.9,304.1c0.4-0.1,1.1-1.5,0.9-1.8
		c-0.2-0.5-0.8-0.3-1.1,0.3c-0.4,0.8-0.7,0.9-0.6,0.1c0.1-0.4,0.1-0.8,0-1c-0.1-0.3-0.2-0.2-0.7,0.3c-0.6,0.7-0.7,0.6-0.4-0.3
		c0.1-0.4,0.1-0.6-0.1-0.8c-0.3-0.3-0.4-0.2-1.1,0.6c-0.9,1-1.2,1.9-0.7,2.2c0.4,0.3,1.8,0.3,2.1,0c0.2-0.2,0.3-0.2,0.4,0.1
		C-332.8,304.2-332.4,304.3-331.9,304.1L-331.9,304.1z M-334.7,303.5c0-0.1,0.2-0.3,0.4-0.5l0.4-0.3l-0.3,0.5
		C-334.6,303.6-334.7,303.7-334.7,303.5z M-329.5,303.6c0.4-0.7,0.3-1.2-0.3-1.2c-0.3,0-0.6,0.2-0.8,0.7c-0.5,0.8-0.4,1.2,0.3,1.2
		C-329.9,304.2-329.7,304-329.5,303.6z M-340.9,303.8c0-0.1-0.1-0.3-0.3-0.5c-0.3-0.4-0.3-1.1-0.1-1.6c0.2-0.3,0.1-0.4-0.1-0.3
		c-0.1,0-0.3,0.4-0.4,0.7s-0.2,0.9-0.3,1.2c-0.1,0.6-0.1,0.6,0.4,0.6C-341.2,304-340.9,303.9-340.9,303.8z M-317.1,303.4
		c1.2-0.5,1.5-0.9,1.5-1.7c0-0.7-0.6-1.7-1-1.7c-0.1,0-0.6,0.2-0.9,0.5c-0.4,0.3-0.9,0.5-1.2,0.6c-1.1,0.2-1.8,0.6-2,1.1
		c-0.3,0.5-0.3,0.5,0.5,1.2c0.7,0.6,0.8,0.6,1.5,0.5C-318.3,303.9-317.6,303.6-317.1,303.4z M-335,301l0.5-0.8l-0.4-0.8
		c-0.5-0.9-0.6-1-1.2-0.5l-0.4,0.3l0.3,0.6c0.2,0.3,0.4,0.9,0.5,1.3c0.1,0.4,0.1,0.7,0.2,0.7S-335.2,301.4-335,301z M-324,301.3
		c1.3-0.2,2.5-0.3,2.8-0.4c0.2-0.1,0.9-0.2,1.4-0.3c0.9-0.1,1.1-0.2,1.7-1c0.5-0.6,0.6-0.8,0.3-0.7c-0.6,0.3-2.3,0.4-3.3,0.3
		c-0.5-0.1-1.4-0.4-2-0.7l-1-0.6l-0.3,0.6c-0.9,1.7-3.5,2.2-4.9,0.9c-0.3-0.3-0.6-0.7-0.7-1l-0.1-0.6l-1.5-0.1
		c-1.3-0.1-1.5-0.1-1.8-0.5c-0.6-0.8-1.1-0.9-3.3-0.9c-2,0-2.1,0-2.4,0.4c-0.4,0.6-1,1.7-1,1.9c0,0.4,0.7,0.6,1.4,0.4
		c1-0.3,2.8-1.4,3.3-2.1c0.5-0.6,0.8-0.5,0.8,0.2c0,0.6,0.6,2,1.1,2.5c0.7,0.8,2.9,1.6,4.9,1.8C-327.1,301.7-327.2,301.7-324,301.3
		L-324,301.3z M-342.3,300.8c1.3-0.1,1.4-0.1,1.5-0.6c0.1-0.2,0-0.7-0.1-1c-0.2-0.6,0-1.3,0.8-2.4c0.4-0.6,0.5-0.8,0.4-1.5
		c-0.1-0.6,0-1,0.3-1.6c0.2-0.5,0.4-1.1,0.5-1.4c0.1-0.5,0.1-0.6-0.3-0.8c-0.6-0.3-1-0.9-1.1-1.9c-0.1-0.8,0-1,0.6-2.3
		c0.8-1.5,2.3-3.2,3.5-4c0.3-0.2,0.8-0.6,1.1-0.9c0.4-0.4,0.4-0.5,0.2-1c-0.2-0.4-0.3-0.5-0.7-0.4c-0.3,0.1-1,0.1-1.7,0.2
		c-1.2,0.1-1.2,0.1-1.6,0.9c-0.2,0.4-0.4,0.9-0.4,1c0,0.2-1.4,2.1-2,2.6c-1,0.9-2,1.2-4,1.3l-1.9,0.1l-0.1,1.4
		c-0.2,1.8-0.3,2.1-1,2.4c-0.5,0.2-0.8,0.2-1.9-0.2c-2.4-0.7-3.8-0.5-4.1,0.8c-0.2,0.6-0.1,0.7,0.3,1.1c0.4,0.3,0.6,0.3,2,0.2
		c2.1-0.2,3.4-0.1,4.3,0.2c0.7,0.2,0.8,0.2,1.3-0.2c0.5-0.4,0.8-0.5,1.4-0.4c0.8,0.1,1.1,0.3,1.1,1.1c0,0.4,0.1,0.5,0.3,0.4
		c1.1-0.4,2.1-0.1,2.6,0.8c0.2,0.3,0.1,0.5-0.3,0.9c-0.3,0.3-0.6,0.8-0.6,1.3c-0.1,0.5-0.3,1-0.7,1.4c-0.6,0.6-0.7,0.6-1.7,0.6
		c-1.5,0-2-0.4-2.1-2.1c-0.1-1.5-0.4-1.7-1.3-0.6c-0.4,0.4-1,0.8-1.3,1c-0.8,0.3-1,0.7-0.8,1.5c0.3,1.2,0.7,1.4,2.8,1.9
		c1.1,0.2,2.3,0.4,2.6,0.3C-344.1,300.9-343.1,300.8-342.3,300.8L-342.3,300.8z M-350.9,298.5c-0.1-0.8-0.1-0.8-0.8-0.7l-0.7,0.1
		l0.1,1.2c0,0.7,0.1,1.3,0.2,1.4c0.1,0.1,0.4-0.1,0.7-0.5C-350.8,299.3-350.8,299.2-350.9,298.5L-350.9,298.5z M-325.6,299.3
		c0.2-0.2,0.5-0.7,0.7-1.1c0.3-0.7,0.3-0.8,0.1-1.1c-0.2-0.2-0.3-0.4-0.3-0.5c0-0.4-0.2-0.2-0.9,0.5c-0.8,0.8-1.2,0.9-1.6,0.3
		c-0.3-0.4-0.3-0.6-0.1-1.2c0.3-1,0.2-1.7-0.4-2c-0.7-0.4-1.3-0.1-2,0.7c-0.5,0.6-0.6,0.8-0.4,1.1c0.1,0.2,0.4,0.3,0.6,0.2
		c0.8-0.1,1.2,0.8,0.7,1.6c-0.3,0.5,0.3,1.4,1,1.8C-327.5,299.8-326.2,299.7-325.6,299.3L-325.6,299.3z M-343,297.8
		c0.3-0.4,0.4-0.7,0.3-1.2c-0.1-0.6,0-0.8,0.5-1.2c0.6-0.5,0.6-0.5,0.2-0.8c-0.5-0.3-1.3-0.3-1.6,0c-0.1,0.2-0.2,0.5-0.1,0.9
		c0.2,0.9-0.2,1.4-0.9,1.1c-0.7-0.2-0.9-1.1-0.5-2c0.5-1.2,0.4-1.4-0.3-1.5c-0.3,0-0.8,0-0.9,0.1c-0.2,0.2-0.2,0.2,0.1,0.5
		c0.3,0.2,0.4,0.5,0.4,1.1c0,0.4-0.1,0.8-0.2,0.9c-0.1,0.1-0.2,0.6-0.2,1.1c0,0.8,0.1,1,0.5,1.3C-345,298.8-343.6,298.5-343,297.8
		L-343,297.8z M-317.8,298.3c0.7-0.3,1-0.5,1.2-0.9c0.4-1.1,0.8-2.3,0.8-2.9c0.1-0.4,0.1-1,0.2-1.5c0.2-1.2-0.2-0.8-0.5,0.8
		c-0.7,3-0.7,3.1-1.8,3.6c-1.3,0.6-3.7,0.5-4.5-0.1c-1.3-1-1.7-2.9-1-5.3c0.2-0.8,0.4-1.8,0.5-2.3c0.1-1,1-2.6,1.6-2.9
		c0.8-0.4,2.1-0.6,3.4-0.4c1.7,0.2,1.9,0.2,1.9-0.1c0-0.3-0.8-0.6-2.5-0.9c-1-0.2-1.3-0.2-2.2,0.1c-0.7,0.2-1.3,0.6-1.8,1
		c-0.7,0.6-0.8,0.9-1.2,2.7c-0.8,3.1-0.9,3.6-1,4.9c-0.1,1.1,0,1.3,0.4,1.8c0.2,0.3,0.5,0.8,0.6,1c0.1,0.4,1.3,1.3,2.1,1.5
		C-320.7,298.8-318.8,298.7-317.8,298.3L-317.8,298.3z M-351.4,297c1.5-0.2,3-0.8,3.1-1.3c0.1-0.3-0.1-0.3-1-0.3
		c-0.6,0-1.8,0-2.6-0.1c-1.7-0.1-1.7,0-2.5,1.2c-0.6,1-0.2,1.4,1,0.9C-353,297.3-352.1,297.1-351.4,297L-351.4,297z M-332,296.6
		c-0.2-0.2-0.6-0.6-0.8-0.9c-0.8-1-1.2-1.1-3.8-1.2c-2.4-0.1-2.4-0.1-2.4,0.3c0,0.6,1,0.9,3,0.9c1.7,0,1.7,0,2.7,0.6
		C-332,297.1-331.3,297.3-332,296.6L-332,296.6z M-326.3,296.5c0.2-0.3,0.5-0.6,0.6-0.8c0.2-0.2,0.3-0.6,0.3-1.2
		c0-0.5,0.1-1.5,0.3-2.2c0.1-0.7,0.3-1.7,0.4-2.2c0.2-1.3,0.8-2.9,1.3-3.6c0.6-0.8,1.3-1.2,2.4-1.5c0.9-0.2,1.2-0.2,2.6,0
		c1,0.1,1.8,0.4,2,0.6c0.3,0.3,0.3,0.3,0.2-1.1c-0.1-0.8-0.1-1.7-0.1-2.1c0-0.6,0-0.6-0.6-0.5c-1.5,0.3-3.6,0.5-4.9,0.3
		c-1.6-0.2-1.6-0.2-2.4,2.2c-0.8,2.4-1.4,3-4.1,3.7c-0.6,0.2-1.4,0.3-1.8,0.3h-0.8l0,1.1c0.1,2.5-1.7,3.4-4.6,2.5
		c-1.7-0.5-2.1-0.4-2.7,0.4c-0.5,0.8-0.5,1.3,0.1,1.3c1.1,0,4,0.4,4.3,0.6c0.2,0.1,0.8,0.6,1.2,1.1c0.9,1,1.4,1.2,1.2,0.5
		c-0.1-0.5,0.3-1.2,1.1-2c1.5-1.3,3.3-0.3,3,1.6c-0.1,0.3-0.2,0.7-0.2,1c-0.1,0.4-0.1,0.5,0.3,0.5
		C-326.8,297-326.5,296.8-326.3,296.5L-326.3,296.5z M-329.2,292.3c-0.3-0.3-0.3-0.4,0-0.8c0.3-0.5,0.2-0.5-0.1-0.5
		c-0.9,0-1-1.3-0.2-1.9c0.4-0.3,0.6-0.3,0.8-0.2c0.5,0.3,0.7,1.1,0.3,1.6c-0.3,0.5-0.2,0.6,0.3,0.6c0.5,0,0.8,0.6,0.4,1.1
		S-328.8,292.7-329.2,292.3z M-327.9,291.9c0-0.1-0.1-0.2-0.2-0.2s-0.2,0.1-0.3,0.2c-0.1,0.1,0,0.2,0.2,0.2
		C-328,292.1-327.9,292-327.9,291.9z M-328.9,290.3c0.3-0.1,0.4-0.6,0.2-0.9c-0.1-0.1-0.8,0.6-0.7,0.8
		C-329.3,290.5-329.3,290.5-328.9,290.3L-328.9,290.3z M-327.4,289.8c-0.2-0.2-0.2-0.4,0.1-0.8c0.2-0.3,0.5-0.6,0.7-0.7
		c0.7-0.5,1.4,0.8,0.8,1.4C-326.2,290.1-327,290.1-327.4,289.8L-327.4,289.8z M-325.9,289.2c0.1-0.2,0.1-0.3,0-0.4
		c-0.1-0.1-0.9,0.3-0.9,0.5C-326.8,289.6-326.1,289.5-325.9,289.2z M-317.8,296.4c0.6-0.5,0.7-0.7,1-2.3c0.2-1.3,0.2-1.5-0.6-1.5
		c-0.2,0-0.5-0.1-0.7-0.3c-0.3-0.2-0.3-0.3-0.1-0.6c0.1-0.2,0.3-0.4,0.4-0.4s0.5-0.3,0.9-0.7c0.7-0.6,0.7-0.7,0.7-1.8
		c0-1.6-0.2-1.8-1.7-1.9c-1.2-0.1-1.4,0-1,0.5c0.1,0.2,0.2,0.2,0.4,0.1c0.3-0.3,0.7-0.3,0.7,0c0,0.3-0.8,1.2-1.1,1.2
		c-0.1,0-0.3-0.4-0.5-0.9c-0.3-1-0.3-1-1.2-0.7c-0.8,0.3-1.5,1.4-1.6,2.5c-0.1,0.8-0.1,1,0.4,1.5l0.5,0.6l-0.8,1
		c-0.9,1-1,1.6-0.6,2.7c0.3,0.8,1.2,1.6,1.3,1c0-0.1,0.3-0.4,0.6-0.7c0.3-0.3,0.7-0.6,0.7-0.8c0.2-0.5,0.6-0.4,0.8,0.2
		c0.1,0.3,0.3,0.7,0.4,0.9c0.3,0.6,0,0.7-0.5,0.1l-0.4-0.5l-0.8,0.6l-0.8,0.6l0.6,0.1C-319.7,297.1-318.4,296.9-317.8,296.4
		L-317.8,296.4z M-344.1,295.4c0-0.4-0.1-0.6-0.2-0.5c-0.1,0.1-0.2,0.3-0.2,0.7c0,0.3,0.1,0.5,0.2,0.5
		C-344.1,296.1-344.1,295.8-344.1,295.4z M-346.8,294.7c0.2-0.1,0.1-0.3-0.6-0.7c-0.8-0.5-0.8-0.5-3.9-0.5c-3.2,0-3.5,0.1-2.3,0.7
		c0.5,0.2,1.2,0.3,2.9,0.3c1.3,0,2.5,0.1,2.8,0.2c0.3,0.1,0.6,0.1,0.6,0.2C-347.1,294.8-346.9,294.7-346.8,294.7L-346.8,294.7z
		 M-316.4,291.6V291l-0.6,0.3c-0.6,0.4-0.7,0.5-0.2,0.8C-316.5,292.4-316.4,292.3-316.4,291.6z M-322.1,291.5
		c-0.2-0.3-0.4-0.2-0.4,0.2c0,0.3,0.1,0.3,0.3,0.2C-322.2,291.8-322.1,291.6-322.1,291.5L-322.1,291.5z M-331.7,291
		c0.3-0.3,0.4-0.6,0.4-1.3c0-0.9,0-1-0.5-1.4c-0.5-0.4-1.2-0.5-2.8-0.3c-0.8,0.1-0.8-0.5,0-0.8c0.5-0.2,0.6-0.3,0.5-0.5
		c-0.3-0.7-0.3-1.7,0.1-2.7c0.2-0.6,0.4-1.2,0.4-1.3c0-0.5-0.6-0.2-2.1,0.9c-2.8,2.1-3.7,3.5-3.7,5.6c0,0.6,0.1,1.2,0.2,1.3
		c0.1,0.1,0.9,0.2,1.8,0.3c0.9,0,2,0.2,2.5,0.3C-333.7,291.6-332.2,291.5-331.7,291L-331.7,291z M-348.6,290.3
		c0.4-0.3,0.4-0.6,0.5-1.9c0.1-1.5,0.1-1.6-0.3-1.9c-0.5-0.3-1.8-0.4-2.4-0.1c-0.3,0.1-0.4,0.1-0.6,0c-0.4-0.3,0.1-0.7,1.1-0.8
		c0.7-0.1,0.8-0.2,0.8-0.5c0-0.2,0.2-1,0.4-1.7c0.2-0.7,0.3-1.4,0.3-1.4c0,0-0.4-0.1-0.9-0.2l-0.9-0.1l-1.6,1.5
		c-0.8,0.8-1.8,1.9-2,2.3c-0.3,0.5-0.6,1.1-0.8,1.4c-0.4,0.7-0.4,2.4,0,2.8c0.2,0.2,0.6,0.2,1.1,0.2c1.6-0.1,2.7,0,3.7,0.3
		C-349,290.7-349.1,290.7-348.6,290.3L-348.6,290.3z M-328.1,287.6c1.9-0.6,2.8-1.3,3.3-2.5c0.1-0.3,0.4-1,0.6-1.5
		c0.2-0.5,0.3-1,0.3-1.3c0-0.4,0-0.4-0.4-0.1c-0.4,0.4-1,1.6-1.2,2.4c-0.1,0.3-0.4,0.8-0.9,1.2c-0.7,0.6-0.9,0.6-2.8,0.9
		c-2.3,0.3-2.8,0.2-3.6-0.5c-0.6-0.6-0.6-0.8-0.1-1.9c0.4-0.9,0.5-1.5,0.1-1.4c-0.4,0.1-1.1,2.5-1,3.1c0.1,0.7,0.5,0.9,1.8,1.4
		C-330.6,287.9-329.3,287.9-328.1,287.6z M-342.9,286c0.5-0.2,1.1-0.7,1.4-1c0.6-0.6,1.6-2.3,1.7-3c0.1-0.5,0.1-0.6-0.3-0.6
		c-0.3,0-0.4,0.2-0.8,1.3c-0.3,1.1-0.5,1.4-1.4,2.2c-0.8,0.7-1.2,1-2.1,1.1c-1.1,0.2-2.6,0.3-3.2,0.1c-0.2-0.1-0.3,0-0.3,0.1
		c0,0.3,0.8,0.4,2.5,0.3C-344.1,286.5-343.6,286.3-342.9,286z M-330.8,285.9c0.3-0.9,0.3-1-0.7-1c-1.1,0-1.3,0.3-0.7,1
		C-331.6,286.5-331.1,286.5-330.8,285.9z M-327.4,286c0.3-0.1,0.8-0.4,1-0.6c0.4-0.4,1.1-2.4,1-2.5c-0.1-0.1-3.3-0.2-5.1-0.1
		c-1.1,0-1.1,0.1-1.4,0.6c-0.3,0.8-0.1,1.1,0.6,1.1c0.8,0,1,0.3,1,1.1c0,0.4,0,0.7,0.1,0.8C-329.9,286.4-328.1,286.2-327.4,286
		L-327.4,286z M-344.8,285.6c1.3-0.3,2-0.7,2.7-1.4c0.5-0.6,1.2-1.9,1.2-2.4c0-0.3-1.3-0.6-2.2-0.5c-3.5,0.6-3.6,0.6-4,1.1
		c-0.6,0.6-0.9,2.2-0.6,2.7c0.1,0.2,0.5,0.5,0.9,0.6C-345.9,285.9-345.9,285.9-344.8,285.6L-344.8,285.6z M-348.6,284.7
		c-0.1-0.7-0.1-0.8-0.2-0.3c-0.1,0.5-0.1,1,0.2,1C-348.6,285.5-348.6,285.1-348.6,284.7z M-348.3,283.2c0-0.1-0.1-0.1-0.2,0
		c-0.1,0.1-0.2,0.3-0.2,0.4c0,0.3,0,0.3,0.2,0C-348.3,283.5-348.3,283.3-348.3,283.2z M-325,281.7c0.6-0.3,0.9-0.6,1.2-1.3
		c1-1.9,1.5-4.1,1.5-5.8c0-1.6-1.1-2-4.6-1.8c-2.3,0.1-3.5,0.4-4,1.1c-0.1,0.2-0.4,0.3-0.6,0.3c-0.4,0-0.8,0.4-1.6,1.8
		c-0.9,1.6-1.6,3.6-1.5,4.1c0.3,1.2,0.7,1.8,1.2,1.9c0.3,0.1,0.6,0.1,0.6,0.1s1.7,0,3.5,0C-326.1,282.2-325.7,282.1-325,281.7
		L-325,281.7z M-331.5,280.8c-0.5-0.1-1.2-0.9-1.2-1.4c0-1.3,1.7-4.3,2.5-4.7c0.3-0.1,1.4-0.2,2.4-0.3c2.4-0.1,3.9,0.2,4.3,1
		c0.3,0.4,0.3,0.6,0.1,1.3c-0.3,1-2.1,3.8-2.5,4C-326.2,280.9-330.8,280.9-331.5,280.8L-331.5,280.8z M-326,279.9
		c0.2-0.1,0.6-0.6,0.8-1l0.4-0.8l-0.5-0.3c-0.6-0.4-0.6-0.7,0.1-1.2c0.3-0.2,0.8-0.5,0.9-0.7c0.3-0.3,0.3-0.4,0-0.5
		c-0.6-0.3-1.8-0.4-2.3-0.2c-0.3,0.1-0.6,0.4-0.8,0.8c-0.4,0.7-0.9,0.7-1.1,0c-0.2-1-1.4-1.1-2-0.1c-0.3,0.4-0.3,0.5,0,0.8
		c0.4,0.5,0.4,0.6-0.4,1.1c-0.8,0.4-1.2,1.1-1.1,1.7c0.1,0.3,0.2,0.5,0.8,0.6c0.7,0.2,0.7,0.1,1.3-0.5c0.6-0.7,1.1-0.8,1-0.1
		c-0.1,0.6,0,0.7,0.3,0.8C-327.9,280.4-326.4,280.2-326,279.9L-326,279.9z M-324.2,277.1c0-0.3,0-0.3-0.4-0.1
		c-0.2,0.1-0.3,0.2-0.1,0.4C-324.5,277.6-324.2,277.5-324.2,277.1L-324.2,277.1z M-327.5,275.2c0.1-0.1,0-0.2-0.1-0.2
		s-0.2,0.1-0.3,0.2c-0.1,0.1,0,0.2,0.1,0.2S-327.5,275.3-327.5,275.2z M-318.5,281.6c2-0.3,2.3-0.5,2.4-1.7c0.2-1.9,0.2-4.1,0.1-5.7
		l-0.2-1.6l-0.8-0.1c-0.8-0.1-2,0-2.2,0.2c-0.1,0.1,0,0.2,0.1,0.3c0.3,0.5,0.7,2,0.6,2.8c-0.1,1.1-0.6,2.5-1.1,3.1
		c-0.4,0.6-2.1,1.4-2.8,1.4c-0.6,0-1,0.6-0.7,1c0.2,0.2,1.6,0.4,2.9,0.5C-320,281.8-319.2,281.7-318.5,281.6L-318.5,281.6z
		 M-344.8,281c0.6-0.1,1.3-0.3,1.7-0.3c0.6,0,0.8-0.1,1.7-1c1.4-1.4,1.6-1.7,2.2-3.1c0.3-0.7,0.7-1.7,1-2.2c0.3-0.6,0.5-1.3,0.5-1.9
		c0-0.8,0-0.9-0.6-1.2c-0.8-0.3-2.5-0.4-3.5-0.1c-0.8,0.2-0.9,0.6-0.2,0.6c0.6,0,1.2,0.4,1.5,0.8c0.2,0.3,0.2,0.8,0,1.8
		c-0.2,1.1-0.4,1.7-1.2,3.1c-0.9,1.6-1.1,1.7-2.1,2.3c-1,0.5-1.3,0.6-2.8,0.6c-0.9,0-2-0.1-2.4-0.2c-0.7-0.1-0.8-0.1-0.7,0.2
		c0.1,0.2,0.3,0.4,0.4,0.6C-349,281.3-346,281.3-344.8,281L-344.8,281z M-335.9,280.6c0.2-0.1,0.5-0.6,0.7-1.2
		c0.2-0.6,0.6-1.6,0.9-2.3s0.7-1.4,0.7-1.7c0.1-0.5,1-1.5,1.7-1.9l0.5-0.3l-0.4-0.3c-0.2-0.1-0.8-0.4-1.2-0.5
		c-1-0.3-3.7-0.2-3.9,0.1c-0.3,0.3,0,0.8,0.4,0.8c0.2,0,0.7,0.3,1,0.7c0.8,0.8,0.8,1.5,0.1,2.8c-1,1.9-1.8,2.5-3.3,2.5
		c-1,0-1.1,0.1-1.7,0.7c-0.4,0.4-0.7,0.7-0.7,0.8c0,0.2,0.9,0.3,2.9,0.3C-337.1,280.8-336.1,280.7-335.9,280.6L-335.9,280.6z
		 M-347.8,279.5c0.3-1.2,0.6-1.5,1.4-1.9c1.2-0.6,2.8-0.9,3.5-0.7c0.4,0.1,0.6,0.1,0.8-0.1c0.1-0.1,0.2-0.3,0.1-0.3s-1-0.1-2-0.2
		c-2.6-0.2-3.4,0.1-5,1.6c-1.2,1.2-1.2,1.3,0.1,1.7C-347.9,280-347.9,280-347.8,279.5L-347.8,279.5z M-344.4,279.5
		c0.9-0.4,1.7-1.5,1.4-1.8c-0.3-0.3-1.4-0.2-2.6,0.2c-0.8,0.2-1.1,0.4-1.3,0.9c-0.5,1.1-0.4,1.3,0.7,1.2
		C-345.6,279.9-344.9,279.7-344.4,279.5z M-320.5,279.2c0.7-0.4,1.3-1.8,1.4-3.3c0.1-1.4-0.1-2.4-0.8-2.8c-0.4-0.3-0.5-0.3-1.1,0
		c-0.3,0.1-0.6,0.3-0.6,0.4s0.2,0.5,0.4,1c0.5,1.2,0.5,2-0.1,2.8c-0.8,1.2-1.3,2.4-1,2.5C-322.2,279.9-321.2,279.7-320.5,279.2z
		 M-351,279.2c0-0.4,0.4-1.1,1.9-2.9c1-1.3,1.8-2.3,1.8-2.4c-0.1-0.1-0.8-0.2-1.3-0.3c-0.4,0-0.9-1.1-0.9-1.9c0-0.6,0.4-0.9,1.5-1.3
		c0.9-0.3,1.6,0,2.2,0.8c0.7,0.8,0.3,1-0.5,0.2c-0.8-0.7-0.8-0.7-1.9-0.4c-0.8,0.3-1.1,0.9-0.7,1.6c0.2,0.4,0.4,0.5,1.2,0.5
		c0.9,0.1,1.1,0,2-0.7c0.6-0.4,1.1-0.8,1.1-0.8c0.3,0,0.9-0.8,1.2-1.5c0.7-1.6-0.6-2.9-2.7-2.6c-1.9,0.3-2.7,0.6-4.3,2.3
		c-2,1.9-2.2,2.2-2.3,3.6c-0.1,1-0.1,1.2,0.3,1.7c0.5,0.7,0.4,1.2-0.8,2.8c-1.1,1.4-1,1.7,0.9,1.7h1.3L-351,279.2L-351,279.2z
		 M-336.6,277.7c0.6-0.7,1.2-2,1.2-2.7c0-1-1.9-1.7-2.1-0.8c-0.1,0.2-0.5,1.2-0.9,2.1c-1.1,2.3-1.1,2.3,0.2,2.2
		C-337.4,278.4-337.2,278.3-336.6,277.7z M-347.3,276.1c0.5-0.2,0.5-0.3,0.3-0.8c-0.1-0.3-0.2-0.2-0.6,0.2
		C-348.3,276.3-348.2,276.5-347.3,276.1L-347.3,276.1z M-341.6,275.6c0.3-0.1-0.6-0.4-1.5-0.4c-1,0-1.6-0.7-1.4-1.6
		c0.1-0.3,0.2-0.6,0.3-0.7s0.1-0.2,0.1-0.3c-0.2-0.2-1.3,0.6-1.9,1.3c-0.4,0.5-0.4,0.7-0.2,1c0.3,0.7,1.3,0.9,3,0.8
		C-342.4,275.7-341.7,275.7-341.6,275.6L-341.6,275.6z M-341.3,274.3c0.5-1,0-1.7-1.2-1.7c-0.7,0-0.8,0.1-1.2,0.6
		c-0.4,0.6-0.4,0.7-0.1,1C-343.3,274.8-341.6,274.8-341.3,274.3L-341.3,274.3z M-320.8,272.4c0.7-0.3,1.7-0.4,2.9-0.5l1.8-0.1
		l0.2-0.7c0.6-1.8,0.2-2.7-1.5-3.4c-0.9-0.4-1.2-0.4-2.9-0.3c-2.6,0.2-4.7,0.6-5.1,1c-0.1,0.2-0.5,0.5-0.9,0.8
		c-0.4,0.3-0.6,0.6-0.7,1c-0.1,0.3-0.3,0.9-0.6,1.2c-0.2,0.3-0.4,0.6-0.4,0.7c0,0.1,1,0.1,2.3,0.1c1.8,0,2.3,0,2.8,0.3
		C-322.2,272.9-322.1,272.9-320.8,272.4z M-329.4,272.1c1.2-0.6,1.5-1,1-1.4c-0.2-0.1-0.6-0.3-1-0.3s-0.6-0.1-0.6-0.2
		c0-0.3-0.9-0.4-4.1-0.5c-2.9-0.1-4.5,0.1-5,0.5c-0.2,0.2-0.1,0.3,0.6,0.5c0.5,0.1,1,0.4,1.2,0.5c0.2,0.2,1,0.3,2.4,0.3
		c1.8,0.1,2.3,0.2,3.1,0.5c0.5,0.3,1,0.5,1.1,0.5C-330.5,272.6-329.9,272.4-329.4,272.1L-329.4,272.1z M-339.6,269.6l1.3-0.6l4.3,0
		c4.3,0,4.3,0,5.2,0.5c0.4,0.3,0.9,0.5,1,0.5c0.2,0,0.8-1,0.8-1.3c0-0.1-0.5-0.4-1.1-0.7c-1-0.5-1.1-0.5-4.9-0.5
		c-4.2,0-7.1,0.4-8.3,1c-0.8,0.4-0.9,0.7-0.9,1.4c0,0.4,0,0.5,0.7,0.3C-341.1,270.3-340.3,270-339.6,269.6L-339.6,269.6z
		 M-248.4,181.9c0.3-0.3,0.4-0.6,0.4-0.7c-0.3-0.3-2.1,0.6-2.1,1.1c0,0.1,0.3,0.2,0.6,0.2C-249.1,182.5-248.8,182.3-248.4,181.9z
		 M-247.9,179.4c0.2-0.5-0.1-0.5-1-0.1c-0.7,0.3-0.9,0.6-0.9,1l-0.1,0.5l0.9-0.6C-248.4,180-247.9,179.6-247.9,179.4L-247.9,179.4z
		 M-250.6,177.4c0.6-0.5,0.8-1,0.4-1c-0.3,0-2,1.1-2,1.3C-252.2,178.1-251.1,177.8-250.6,177.4z"/>
	<rect id="_x3C_Slice_x3E_" x="-386.6" y="246.8" class="st0" width="101.6" height="73.9"/>
</g>
</svg>
